{
  "asset": {
    "generator": "Khronos glTF Blender I/O v1.7.33",
    "version": "2.0"
  },
  "scene": 0,
  "scenes": [
    {
      "name": "Scene",
      "nodes": [
        0
      ]
    }
  ],
  "nodes": [
    {
      "mesh": 0,
      "name": "Jaguar"
    }
  ],
  "materials": [
    {
      "doubleSided": true,
      "name": "Jaguar",
      "pbrMetallicRoughness": {
        "baseColorTexture": {
          "index": 0,
          "texCoord": 0
        },
        "roughnessFactor": 0.858578622341156,
        "baseColorFactor": [
          1,
          1,
          1,
          1
        ],
        "metallicFactor": 1
      },
      "emissiveFactor": [
        0,
        0,
        0
      ],
      "alphaMode": "OPAQUE"
    }
  ],
  "meshes": [
    {
      "name": "Mesh.002",
      "primitives": [
        {
          "attributes": {
            "POSITION": 0,
            "NORMAL": 1,
            "TEXCOORD_0": 2,
            "COLOR_0": 3
          },
          "indices": 4,
          "material": 0,
          "mode": 4
        }
      ]
    }
  ],
  "textures": [
    {
      "sampler": 0,
      "source": 0
    }
  ],
  "images": [
    {
      "bufferView": 5,
      "mimeType": "image/png",
      "name": "CH_NPC_MOB_Jaguar_599f944"
    }
  ],
  "accessors": [
    {
      "bufferView": 0,
      "componentType": 5126,
      "count": 18716,
      "max": [
        0.9121382832527161,
        4.902408123016357,
        4.581117153167725
      ],
      "min": [
        -0.9121388792991638,
        -0.0500953383743763,
        -7.412639141082764
      ],
      "type": "VEC3",
      "byteOffset": 0
    },
    {
      "bufferView": 1,
      "componentType": 5126,
      "count": 18716,
      "type": "VEC3",
      "byteOffset": 0
    },
    {
      "bufferView": 2,
      "componentType": 5126,
      "count": 18716,
      "type": "VEC2",
      "byteOffset": 0
    },
    {
      "bufferView": 3,
      "componentType": 5123,
      "count": 18716,
      "normalized": true,
      "type": "VEC4",
      "byteOffset": 0
    },
    {
      "bufferView": 4,
      "componentType": 5123,
      "count": 70392,
      "type": "SCALAR",
      "byteOffset": 0
    }
  ],
  "bufferViews": [
    {
      "buffer": 0,
      "byteLength": 224592,
      "byteOffset": 0,
      "byteStride": 12,
      "target": 34962
    },
    {
      "buffer": 0,
      "byteLength": 224592,
      "byteOffset": 224592,
      "byteStride": 12,
      "target": 34962
    },
    {
      "buffer": 0,
      "byteLength": 149728,
      "byteOffset": 449184,
      "byteStride": 8,
      "target": 34962
    },
    {
      "buffer": 0,
      "byteLength": 149728,
      "byteOffset": 598912,
      "byteStride": 8,
      "target": 34962
    },
    {
      "buffer": 0,
      "byteLength": 140784,
      "byteOffset": 748640,
      "target": 34963
    },
    {
      "buffer": 0,
      "byteOffset": 889424,
      "byteLength": 1395635
    }
  ],
  "samplers": [
    {
      "magFilter": 9729,
      "minFilter": 9987,
      "wrapS": 10497,
      "wrapT": 10497
    }
  ],
  "buffers": [
    {
      "name": "Jaguar",
      "byteLength": 2285064,
      "uri": "data:application/octet-stream;base64,"
    }
  ]
}
