{
  "asset": {
    "generator": "Khronos glTF Blender I/O v1.7.33",
    "version": "2.0"
  },
  "scene": 0,
  "scenes": [
    {
      "name": "Scene",
      "nodes": [
        0
      ]
    }
  ],
  "nodes": [
    {
      "mesh": 0,
      "name": "OsoPerezoso"
    }
  ],
  "materials": [
    {
      "doubleSided": true,
      "name": "Branch",
      "normalTexture": {
        "index": 0,
        "texCoord": 0
      },
      "pbrMetallicRoughness": {
        "baseColorTexture": {
          "index": 1,
          "texCoord": 0
        },
        "metallicFactor": 0,
        "roughnessFactor": 0.8945907354354858,
        "baseColorFactor": [
          1,
          1,
          1,
          1
        ]
      },
      "emissiveFactor": [
        0,
        0,
        0
      ],
      "alphaMode": "OPAQUE"
    },
    {
      "doubleSided": true,
      "name": "Linns_Sloth",
      "pbrMetallicRoughness": {
        "baseColorTexture": {
          "index": 2,
          "texCoord": 0
        },
        "metallicFactor": 0,
        "roughnessFactor": 0.8945907354354858,
        "baseColorFactor": [
          1,
          1,
          1,
          1
        ]
      },
      "emissiveFactor": [
        0,
        0,
        0
      ],
      "alphaMode": "OPAQUE"
    }
  ],
  "meshes": [
    {
      "name": "13565_Linns_Sloth_v1_L2",
      "primitives": [
        {
          "attributes": {
            "POSITION": 0,
            "NORMAL": 1,
            "TEXCOORD_0": 2
          },
          "indices": 3,
          "material": 0,
          "mode": 4
        },
        {
          "attributes": {
            "POSITION": 4,
            "NORMAL": 5,
            "TEXCOORD_0": 6
          },
          "indices": 7,
          "material": 1,
          "mode": 4
        }
      ]
    }
  ],
  "textures": [
    {
      "sampler": 0,
      "source": 0
    },
    {
      "sampler": 0,
      "source": 1
    },
    {
      "sampler": 0,
      "source": 2
    }
  ],
  "images": [
    {
      "bufferView": 8,
      "mimeType": "image/jpeg",
      "name": "branch_bump"
    },
    {
      "bufferView": 9,
      "mimeType": "image/jpeg",
      "name": "branch_diff"
    },
    {
      "bufferView": 10,
      "mimeType": "image/jpeg",
      "name": "13565_Linns_Sloth_diff"
    }
  ],
  "accessors": [
    {
      "bufferView": 0,
      "componentType": 5126,
      "count": 15005,
      "max": [
        1.3809949159622192,
        2.384364604949951,
        -0.08344872295856476
      ],
      "min": [
        -1.5207830667495728,
        2.1632609367370605,
        -0.3159955143928528
      ],
      "type": "VEC3",
      "byteOffset": 0
    },
    {
      "bufferView": 1,
      "componentType": 5126,
      "count": 15005,
      "type": "VEC3",
      "byteOffset": 0
    },
    {
      "bufferView": 2,
      "componentType": 5126,
      "count": 15005,
      "type": "VEC2",
      "byteOffset": 0
    },
    {
      "bufferView": 3,
      "componentType": 5123,
      "count": 87852,
      "type": "SCALAR",
      "byteOffset": 0
    },
    {
      "bufferView": 4,
      "componentType": 5126,
      "count": 10453,
      "max": [
        1.1068990230560303,
        2.3944265842437744,
        0.9256930947303772
      ],
      "min": [
        -1.1068990230560303,
        -0.45427894592285156,
        -0.8973772525787354
      ],
      "type": "VEC3",
      "byteOffset": 0
    },
    {
      "bufferView": 5,
      "componentType": 5126,
      "count": 10453,
      "type": "VEC3",
      "byteOffset": 0
    },
    {
      "bufferView": 6,
      "componentType": 5126,
      "count": 10453,
      "type": "VEC2",
      "byteOffset": 0
    },
    {
      "bufferView": 7,
      "componentType": 5123,
      "count": 57948,
      "type": "SCALAR",
      "byteOffset": 0
    }
  ],
  "bufferViews": [
    {
      "buffer": 0,
      "byteLength": 180060,
      "byteOffset": 0,
      "byteStride": 12,
      "target": 34962
    },
    {
      "buffer": 0,
      "byteLength": 180060,
      "byteOffset": 180064,
      "byteStride": 12,
      "target": 34962
    },
    {
      "buffer": 0,
      "byteLength": 120040,
      "byteOffset": 360128,
      "byteStride": 8,
      "target": 34962
    },
    {
      "buffer": 0,
      "byteLength": 175704,
      "byteOffset": 480168,
      "target": 34963
    },
    {
      "buffer": 0,
      "byteLength": 125436,
      "byteOffset": 655872,
      "byteStride": 12,
      "target": 34962
    },
    {
      "buffer": 0,
      "byteLength": 125436,
      "byteOffset": 781312,
      "byteStride": 12,
      "target": 34962
    },
    {
      "buffer": 0,
      "byteLength": 83624,
      "byteOffset": 906752,
      "byteStride": 8,
      "target": 34962
    },
    {
      "buffer": 0,
      "byteLength": 115896,
      "byteOffset": 990376,
      "target": 34963
    },
    {
      "buffer": 0,
      "byteOffset": 1106272,
      "byteLength": 264152
    },
    {
      "buffer": 0,
      "byteOffset": 1370424,
      "byteLength": 514162
    },
    {
      "buffer": 0,
      "byteOffset": 1884592,
      "byteLength": 1070462
    }
  ],
  "samplers": [
    {
      "magFilter": 9729,
      "minFilter": 9987,
      "wrapS": 10497,
      "wrapT": 10497
    }
  ],
  "buffers": [
    {
      "name": "OsoPerezosoDeDedos",
      "byteLength": 2955056,
      "uri": "data:application/octet-stream;base64,"
    }
  ]
}
